<svg width="48" height="49" viewBox="0 0 48 49" fill="none" xmlns="http://www.w3.org/2000/svg">
<path fill-rule="evenodd" clip-rule="evenodd" d="M21.6797 36.9274V34.3863C21.6797 34.3863 21.6724 33.7008 22.0494 33.1215C21.5238 33.0825 18.21 32.751 18.21 28.8196C18.21 27.3001 19.1252 26.3431 19.1252 26.3431C19.1252 26.3431 18.8805 25.4767 18.9788 24.4822C19.1095 23.1602 21.5564 24.6609 21.5564 24.6609C21.5564 24.6609 23.471 23.9548 26.281 24.6609C26.5293 24.3575 28.7146 22.9573 28.9395 24.3929C29.009 24.8369 28.8458 26.3431 28.8458 26.3431C28.8458 26.3431 29.6206 27.1288 29.626 28.8442C29.6369 32.2357 25.8261 33.1215 25.8261 33.1215C25.8261 33.1215 26.1856 33.7757 26.172 34.3863C26.1585 34.997 26.172 37 26.172 37C26.172 37 29.8169 35.8847 31.5674 33.0498C32.4044 31.6944 33 30.1179 33 28.1846C33 25.2995 31.8249 23.2014 30.5001 21.7971C28.7136 19.9033 26.2658 19 24 19C21.7525 19 19.2387 19.9239 17.4121 21.8971C16.0278 23.3925 15 25.507 15 28.1846C15 30.2112 15.7011 32.1298 16.7732 33.5648C18.6151 36.0301 21.6797 36.9274 21.6797 36.9274Z" stroke="#2088FF" stroke-width="2" stroke-linecap="round" stroke-linejoin="round"/>
<path d="M11 48H3C1.89543 48 1 47.1046 1 46V20C1 18.8954 1.89543 18 3 18H6L11 18" stroke="#79B8FF" stroke-width="2" stroke-linecap="round" stroke-linejoin="round"/>
<path d="M5.01172 23H10.0117" stroke="#79B8FF" stroke-width="2" stroke-linecap="round"/>
<path d="M5.01367 28H10.0137" stroke="#79B8FF" stroke-width="2" stroke-linecap="round"/>
<path d="M34 36.9989C34 36.4466 33.5523 35.9989 33 35.9989C32.4477 35.9989 32 36.4466 32 36.9989H34ZM33 48V49C33.5523 49 34 48.5523 34 48H33ZM27 48H26C26 48.5523 26.4477 49 27 49V48ZM27 44.8636H28C28 44.3114 27.5523 43.8636 27 43.8636V44.8636ZM21 44.8636V43.8636C20.4477 43.8636 20 44.3114 20 44.8636H21ZM21 48V49C21.5523 49 22 48.5523 22 48H21ZM15 48H14C14 48.5523 14.4477 49 15 49V48ZM16 37.0243C16 36.472 15.5523 36.0243 15 36.0243C14.4477 36.0243 14 36.472 14 37.0243H16ZM14 19.0122C14 19.5645 14.4477 20.0122 15 20.0122C15.5523 20.0122 16 19.5645 16 19.0122H14ZM18 9.22727L18.4262 10.1319C18.4447 10.1232 18.463 10.1139 18.4809 10.104L18 9.22727ZM33 1H34C34 0.646647 33.8135 0.319526 33.5095 0.139506C33.2054 -0.0405132 32.8289 -0.0467031 32.5191 0.123224L33 1ZM32 19.0219C32 19.5741 32.4477 20.0219 33 20.0219C33.5523 20.0219 34 19.5741 34 19.0219H32ZM32 36.9989V48H34V36.9989H32ZM33 47H27V49H33V47ZM28 48V44.8636H26V48H28ZM27 43.8636H21V45.8636H27V43.8636ZM20 44.8636V48H22V44.8636H20ZM21 47H15V49H21V47ZM16 48V37.0243H14V48H16ZM16 19.0122V14.4545H14V19.0122H16ZM16 14.4545C16 12.4615 17.1989 10.7101 18.4262 10.1319L17.5738 8.32265C15.5679 9.2677 14 11.7773 14 14.4545H16ZM18.4809 10.104L33.4809 1.87678L32.5191 0.123224L17.5191 8.3505L18.4809 10.104ZM32 1V19.0219H34V1H32Z" fill="#2088FF"/>
<path d="M36 21L37.0597 20.2052L40 18L47 24V46C47 47.1046 46.1046 48 45 48H37" stroke="#79B8FF" stroke-width="2" stroke-linecap="round" stroke-linejoin="round"/>
<path d="M38.0137 30.0078H43.0137" stroke="#79B8FF" stroke-width="2" stroke-linecap="round"/>
<path d="M38.0156 35.0078H43.0156" stroke="#79B8FF" stroke-width="2" stroke-linecap="round"/>
</svg>
