<svg width="56" height="56" xmlns="http://www.w3.org/2000/svg"><g fill="none" fill-rule="evenodd"><path d="M28 37c1.003.005.997-.443 1-1 .004-1.458-.004-4.629 0-6-.007-.564-.068-.987-1-1-2.118 0-4 1.79-4 4s1.882 4 4 4zM48 37c-1.003.005-.997-.443-1-1-.004-1.458.004-4.629 0-6 .007-.564.068-.987 1-1 2.118 0 4 1.79 4 4s-1.882 4-4 4z" stroke="#2088FF" stroke-width="2" stroke-linecap="round" stroke-linejoin="round"/><path d="M26 51c.798-4.48 4.87-8.082 9.97-8.849.66-.1 1.338-.151 2.028-.151m9.606 4.038c1.27 1.408 2.12 3.102 2.396 4.945M32.002 39.71A8.966 8.966 0 0038 42a8.967 8.967 0 006.02-2.31m-.015-12.394A8.967 8.967 0 0038 25a8.966 8.966 0 00-5.994 2.286" stroke="#79B8FF" stroke-width="2" stroke-linecap="round"/><path d="M38 45c.17 0 .34-.004.509-.01 5.23-.219 9.596-3.785 11.01-8.613m-.004-6.766C48.052 24.634 43.45 21 38 21c-5.485 0-10.11 3.68-11.542 8.706" stroke="#2088FF" stroke-width="2"/><path d="M37.85 44h1.173c.54 0 .977.438.977.977v.523a1.5 1.5 0 01-3 0v-.65c0-.47.38-.85.85-.85z" fill="#2088FF"/><path d="M22 27h-3v4l-6-4H7a2 2 0 01-2-2V7a2 2 0 012-2h33a2 2 0 012 2v10" stroke="#79B8FF" stroke-width="2" stroke-linecap="round" stroke-linejoin="round"/><g stroke="#2088FF" stroke-linecap="round" stroke-width="2"><path stroke-linejoin="round" d="M17 13l-3 3 3 3M30 13l3 3-3 3"/><path d="M25.03 10.986l-3.015 10.027"/></g></g></svg>